<svg width="24" height="24" viewBox="0 0 16 16" fill="#000000" xmlns="http://www.w3.org/2000/svg">
<path d="M13.36 4.5467L9.51999 1.86003C8.47333 1.1267 6.86666 1.1667 5.85999 1.9467L2.51999 4.55336C1.85333 5.07336 1.32666 6.14003 1.32666 6.98003V11.58C1.32666 13.28 2.70666 14.6667 4.40666 14.6667H11.5933C13.2933 14.6667 14.6733 13.2867 14.6733 11.5867V7.0667C14.6733 6.1667 14.0933 5.06003 13.36 4.5467ZM8.49999 12C8.49999 12.2734 8.27333 12.5 7.99999 12.5C7.72666 12.5 7.49999 12.2734 7.49999 12V10C7.49999 9.7267 7.72666 9.50003 7.99999 9.50003C8.27333 9.50003 8.49999 9.7267 8.49999 10V12Z"/>
</svg>
